<svg width="44" height="40" viewBox="0 0 44 40" fill="none" xmlns="http://www.w3.org/2000/svg">
<path d="M43.137 0.551987C42.387 -0.0840129 41.209 -0.175013 39.991 0.313987H39.989C38.708 0.827987 3.728 15.832 2.304 16.445C2.045 16.535 -0.217 17.379 0.0160002 19.259C0.224 20.954 2.042 21.656 2.264 21.737L11.157 24.782C11.747 26.746 13.922 33.992 14.403 35.54C14.703 36.505 15.192 37.773 16.049 38.034C16.801 38.324 17.549 38.059 18.033 37.679L23.47 32.636L32.247 39.481L32.456 39.606C33.052 39.87 33.623 40.002 34.168 40.002C34.589 40.002 34.993 39.923 35.379 39.765C36.694 39.225 37.22 37.972 37.275 37.83L43.831 3.75299C44.231 1.93299 43.675 1.00699 43.137 0.551987ZM19 26L16 34L13 24L36 6.99999L19 26Z" fill="white"/>
</svg>
